<?xml version="1.0" standalone="no"?>
<!DOCTYPE svg PUBLIC "-//W3C//DTD SVG 20010904//EN"
 "http://www.w3.org/TR/2001/REC-SVG-20010904/DTD/svg10.dtd">
<svg version="1.0" xmlns="http://www.w3.org/2000/svg"
 width="1960.000000pt" height="1960.000000pt" viewBox="0 0 1960.000000 1960.000000"
 preserveAspectRatio="xMidYMid meet">
<metadata>
Created by potrace 1.14, written by Peter Selinger 2001-2017
</metadata>
<g transform="translate(0.000000,1960.000000) scale(0.100000,-0.100000)"
fill="#000000" stroke="none">
<path d="M8400 13538 c36 -34 142 -134 235 -223 94 -89 197 -187 230 -218 l60
-56 1597 0 1597 0 -107 102 c-235 224 -301 287 -387 370 l-90 87 -1600 0
-1600 -1 65 -61z"/>
<path d="M8160 13418 c-41 -39 -151 -143 -244 -232 -93 -88 -185 -176 -205
-195 -20 -18 -112 -106 -205 -195 -93 -88 -177 -168 -188 -178 -10 -9 -101
-94 -201 -190 -288 -274 -359 -342 -408 -389 -26 -24 -110 -104 -188 -178 -77
-73 -141 -136 -141 -140 0 -3 283 -6 630 -6 l629 0 52 50 c29 28 62 59 74 70
22 20 66 62 390 371 99 94 196 186 215 204 19 18 105 99 190 180 85 81 190
180 232 220 l77 72 -48 47 c-103 99 -368 350 -406 385 -22 21 -72 68 -110 106
l-70 68 -75 -70z"/>
<path d="M4102 11998 c0 -733 -1 -1342 -1 -1352 -1 -13 -18 4 -50 50 -46 65
-147 175 -201 219 -75 61 -150 115 -158 115 -6 0 -12 3 -14 8 -4 9 -123 80
-203 120 -138 69 -436 173 -560 196 -107 19 -210 35 -270 41 -73 7 -305 8
-365 1 -19 -3 -71 -7 -115 -11 -44 -3 -87 -8 -95 -10 -8 -2 -37 -7 -65 -10
-81 -12 -86 -12 -190 -35 -91 -20 -321 -88 -370 -110 -11 -5 -47 -21 -80 -35
-492 -216 -844 -548 -1082 -1020 -84 -167 -182 -447 -209 -600 -3 -16 -9 -46
-14 -65 -4 -19 -11 -53 -14 -75 -3 -22 -8 -60 -11 -85 -4 -25 -8 -56 -11 -70
-12 -75 -19 -231 -18 -440 0 -227 4 -302 25 -440 17 -122 20 -135 30 -180 5
-25 12 -55 14 -67 76 -360 251 -724 489 -1020 64 -79 256 -265 342 -330 346
-264 775 -438 1199 -488 28 -4 57 -8 65 -10 23 -7 234 -18 340 -18 89 -1 274
10 330 18 14 2 45 7 70 10 111 17 305 69 410 112 111 44 293 147 383 214 118
89 248 220 337 340 34 46 63 85 64 86 1 1 2 -6 2 -15 0 -9 4 -44 7 -77 18
-155 29 -242 32 -263 2 -13 7 -53 11 -90 3 -37 11 -103 18 -147 l11 -80 563 0
c309 0 562 2 563 5 3 16 4 6908 1 6923 -4 16 -41 17 -607 17 l-602 0 -1 -1332z
m-1212 -1757 c512 -107 896 -445 1059 -929 16 -49 34 -115 40 -148 6 -32 13
-68 15 -79 17 -92 23 -301 11 -414 -24 -218 -90 -427 -192 -599 -311 -529
-962 -786 -1586 -626 -466 118 -829 474 -962 943 -27 97 -31 112 -49 230 -13
85 -14 360 -2 436 20 127 25 154 37 200 84 328 275 603 545 782 172 114 333
176 553 213 149 25 388 21 531 -9z"/>
<path d="M9053 12921 c6 -8 34 -35 61 -60 27 -25 74 -71 106 -101 31 -30 100
-95 152 -145 52 -49 129 -123 171 -162 42 -40 80 -73 84 -74 11 0 3099 0 3148
0 l40 1 -81 78 c-244 233 -415 394 -458 433 l-48 44 -1594 1 c-1416 0 -1592
-1 -1581 -15z"/>
<path d="M9744 12269 c-2 -3 52 -58 119 -121 67 -64 145 -137 173 -164 28 -27
104 -98 167 -159 l116 -110 1596 0 c877 0 1595 3 1595 7 0 3 -4 8 -9 10 -5 2
-96 86 -202 188 -106 102 -203 194 -215 205 -12 11 -51 49 -88 84 l-66 65
-1591 0 c-875 1 -1593 -2 -1595 -5z"/>
<path d="M6373 11376 c-4 -6 -7 -4933 -3 -4986 0 -3 285 -5 633 -5 l632 0 0
2499 0 2499 -628 1 c-346 1 -631 -3 -634 -8z"/>
<path d="M11149 11386 c-2 -2 -60 -6 -129 -10 -69 -3 -141 -8 -160 -11 -74
-10 -154 -22 -190 -30 -14 -3 -38 -8 -55 -11 -108 -19 -342 -96 -480 -156
-711 -313 -1254 -948 -1445 -1694 -20 -77 -24 -96 -35 -154 -3 -14 -7 -34 -9
-45 -4 -22 -27 -192 -31 -240 -5 -47 -5 -356 -1 -395 2 -19 7 -66 11 -104 4
-38 9 -79 11 -90 45 -245 67 -329 126 -490 369 -1010 1328 -1681 2403 -1679
99 0 304 11 315 18 3 1 28 5 55 9 57 7 71 9 175 32 634 135 1219 536 1573
1079 98 149 89 133 165 285 74 148 77 155 132 318 40 117 94 337 105 431 4 30
8 61 10 70 17 88 23 392 11 516 -14 137 -17 161 -32 240 -9 44 -18 94 -21 110
-3 17 -20 84 -39 150 -258 898 -995 1588 -1909 1789 -61 13 -137 27 -170 31
-33 4 -71 9 -85 11 -14 2 -77 6 -140 9 -63 3 -124 8 -136 10 -12 3 -23 3 -25
1z m301 -1136 c555 -117 981 -527 1119 -1078 11 -42 22 -95 26 -117 11 -71 14
-338 4 -415 -24 -181 -100 -399 -194 -555 -194 -321 -505 -558 -860 -654 -135
-37 -206 -46 -375 -46 -134 0 -217 6 -280 19 -14 3 -38 8 -55 12 -87 17 -256
80 -355 133 -414 220 -698 631 -758 1096 -14 105 -7 355 13 455 43 220 150
455 285 625 235 297 593 500 955 542 28 3 52 7 54 9 2 2 74 2 160 0 111 -3
186 -10 261 -26z"/>
<path d="M17237 11364 c-1 -1 -46 -5 -100 -8 -83 -5 -185 -19 -295 -40 -332
-66 -731 -285 -1042 -573 -25 -22 -63 -58 -85 -78 l-40 -36 -7 53 c-4 29 -9
80 -13 113 -5 51 -22 192 -40 335 -2 19 -7 62 -11 95 -3 33 -8 62 -10 64 -1 2
-245 4 -542 5 l-539 1 1 -2455 1 -2455 598 0 c394 0 597 3 598 10 1 5 3 604 4
1330 2 726 5 1330 8 1342 3 11 9 43 12 70 73 515 435 949 895 1077 236 65 545
55 774 -25 436 -154 713 -577 742 -1134 1 -33 3 -647 3 -1365 l1 -1305 599 0
c330 0 602 3 606 6 7 8 7 2650 0 2774 -43 741 -311 1346 -769 1734 -310 264
-736 434 -1140 457 -114 6 -207 10 -209 8z"/>
</g>
</svg>
